<svg width="62" height="60" viewBox="0 0 62 60" fill="none" xmlns="http://www.w3.org/2000/svg">
<path opacity="0.4" d="M43.4895 24.1101C43.4895 32.1909 37.9839 37.6966 29.9031 37.6966C21.8223 37.6966 15.2715 32.1909 15.2715 24.1101C15.2715 16.0293 21.8223 9.47852 29.9031 9.47852C37.9839 9.47852 43.4895 16.0293 43.4895 24.1101Z" fill="url(#paint0_linear_876_53642)"/>
<path d="M24.6816 22.7206L28.4142 26.2043L35.1328 19.9336" stroke="url(#paint1_linear_876_53642)" stroke-width="1.97263"/>
<mask id="path-3-inside-1_876_53642" fill="white">
<path d="M45.5042 39.0321L45.5257 38.9706C45.6807 38.3888 45.9227 37.8337 46.2435 37.3242C46.6509 36.8991 47.1213 36.5393 47.6383 36.2575C48.681 35.7257 49.5466 34.9021 50.1295 33.8871C50.5361 32.7965 50.6259 31.6131 50.3885 30.4735C50.2797 29.8674 50.2635 29.2482 50.3404 28.6372C50.5239 28.0811 50.7904 27.556 51.131 27.0796C51.8479 26.1332 52.2788 25.0013 52.3726 23.8177C52.2784 22.6348 51.8479 21.5034 51.132 20.557C50.7908 20.0804 50.5238 19.5548 50.3402 18.9982C50.2632 18.3876 50.2795 17.7689 50.3883 17.1631C50.6254 16.0237 50.5361 14.8405 50.1305 13.7495C49.5473 12.7355 48.6824 11.9125 47.6406 11.3804C47.123 11.0979 46.6521 10.7372 46.2445 10.3112C45.9235 9.80165 45.6811 9.24662 45.5256 8.66482C45.2568 7.52587 44.6675 6.48768 43.8274 5.67301C42.8721 5.0164 41.7443 4.65619 40.5852 4.63748C39.9965 4.61145 39.4156 4.49328 38.8636 4.28729C38.371 3.97555 37.9286 3.59093 37.5513 3.14657C36.8168 2.22422 35.827 1.53849 34.7054 1.17489C33.5706 1.01433 32.4136 1.1906 31.378 1.68179C30.8266 1.92386 30.2406 2.07794 29.6414 2.13844C29.0427 2.07816 28.4571 1.9242 27.9062 1.68217C26.8705 1.19017 25.7128 1.01447 24.5777 1.17703C23.4566 1.53931 22.4671 2.22375 21.7326 3.14492C21.356 3.58996 20.9134 3.97467 20.4203 4.28565C19.8683 4.49164 19.2873 4.60981 18.6987 4.63584C17.5396 4.65455 16.4118 5.01476 15.4565 5.67137C14.6162 6.48659 14.0266 7.52505 13.7571 8.66432C13.6021 9.24613 13.3601 9.80118 13.0393 10.3107C12.6319 10.7358 12.1614 11.0956 11.6444 11.3774C10.6017 11.9092 9.7362 12.7328 9.15322 13.7478C8.74667 14.8384 8.65688 16.0219 8.89421 17.1614C9.00303 17.7675 9.01926 18.3867 8.94233 18.9977C8.75888 19.5538 8.49235 20.0789 8.15179 20.5553C7.43473 21.5018 7.00386 22.6339 6.91016 23.8177C7.00439 25.0006 7.43484 26.132 8.15078 27.0784C8.49196 27.555 8.75893 28.0806 8.94258 28.6372C9.01958 29.248 9.00336 29.867 8.89447 30.4729C8.65732 31.6123 8.74666 32.7956 9.15221 33.8865C9.73544 34.9005 10.6004 35.7235 11.6422 36.2556C12.1597 36.5381 12.6306 36.8988 13.0382 37.3248C13.3593 37.8344 13.6016 38.3894 13.7572 38.9712L13.7805 39.0384C13.7765 39.045 13.7697 39.0484 13.7658 39.0551L7.25176 50.3375C7.01367 50.7494 6.89683 51.2202 6.91472 51.6957C6.93261 52.1712 7.0845 52.6319 7.35287 53.0248C7.62124 53.4177 7.99517 53.7268 8.43156 53.9164C8.86795 54.106 9.34904 54.1684 9.81937 54.0964L14.2158 53.428L15.8363 57.5729C16.0078 58.0169 16.3022 58.4029 16.685 58.6857C17.0678 58.9685 17.5232 59.1364 17.9979 59.1699C18.0633 59.1749 18.1286 59.1774 18.1941 59.1774C18.6369 59.1785 19.072 59.0622 19.4552 58.8403C19.8385 58.6185 20.156 58.299 20.3756 57.9145L27.1228 46.2266C27.391 46.1403 27.6521 46.0454 27.9046 45.9532C28.4561 45.7113 29.0422 45.5573 29.6414 45.497C30.2401 45.5572 30.8256 45.7112 31.3765 45.9532C31.6291 46.0457 31.8932 46.1374 32.1615 46.224L32.1671 46.2407L38.9067 57.9145C39.1263 58.299 39.4439 58.6185 39.8271 58.8403C40.2104 59.0622 40.6455 59.1785 41.0883 59.1774C41.1536 59.1774 41.219 59.1749 41.2844 59.1699C41.7595 59.1363 42.2152 58.9682 42.5983 58.6852C42.9813 58.4021 43.2759 58.0159 43.4476 57.5717L45.0668 53.428L49.4615 54.0964C49.932 54.1688 50.4133 54.1066 50.8499 53.9172C51.2866 53.7277 51.6608 53.4187 51.9294 53.0257C52.1981 52.6328 52.3501 52.1719 52.3681 51.6963C52.3861 51.2206 52.2692 50.7496 52.031 50.3375L45.5042 39.0321ZM18.1883 56.6517L16.2015 51.567C16.0963 51.3006 15.904 51.0776 15.6558 50.9346C15.4077 50.7915 15.1184 50.7366 14.8351 50.779L9.43951 51.6003L15.1742 41.6671C15.2619 41.7711 15.3558 41.8697 15.4553 41.9624C16.4107 42.619 17.5385 42.9792 18.6976 42.9979C19.2862 43.024 19.8671 43.1421 20.4192 43.3481C20.9117 43.6599 21.3542 44.0445 21.7314 44.4888C22.3938 45.2699 23.2245 45.8907 24.1611 46.3047L18.1883 56.6517ZM32.2428 43.5805C31.4179 43.2272 30.5374 43.0211 29.6414 42.9713C28.7452 43.0205 27.8647 43.2267 27.0399 43.5805C26.4513 43.8677 25.803 44.0114 25.1482 43.9997C24.5221 43.7132 23.974 43.2805 23.5499 42.7382C22.9802 42.0736 22.2986 41.5137 21.5361 41.0838C20.7232 40.7373 19.8561 40.5354 18.9737 40.4873C18.304 40.4864 17.6447 40.3212 17.0536 40.0062C16.6133 39.4728 16.3045 38.8434 16.152 38.1687C15.9176 37.3106 15.5374 36.4993 15.0281 35.77C14.4505 35.1049 13.761 34.5461 12.9908 34.1187C12.3737 33.8152 11.8401 33.3657 11.4362 32.8092C11.2649 32.1392 11.2539 31.4383 11.4041 30.7634C11.5539 29.8785 11.5555 28.975 11.409 28.0897C11.1738 27.2487 10.7963 26.4543 10.2929 25.7408C9.85468 25.1792 9.56043 24.519 9.43585 23.8177C9.56027 23.1164 9.85454 22.4563 10.2929 21.895C10.7968 21.1818 11.1743 20.3872 11.409 19.5461C11.5556 18.6607 11.5539 17.757 11.4041 16.8721C11.2536 16.197 11.2651 15.496 11.4375 14.8262C11.8409 14.2685 12.3748 13.8179 12.9925 13.514C13.7632 13.0873 14.4532 12.5288 15.0311 11.864C15.5393 11.1349 15.9184 10.324 16.1522 9.4666C16.3053 8.79163 16.6144 8.16193 17.0548 7.62803C17.6459 7.31307 18.3052 7.1479 18.975 7.14701C19.8575 7.0988 20.7248 6.89678 21.5377 6.55006C22.3008 6.12097 22.9825 5.561 23.5516 4.89573C23.9758 4.35377 24.5239 3.92156 25.1498 3.63541C25.8042 3.62496 26.4518 3.76858 27.0404 4.05468C27.8652 4.40796 28.7455 4.61422 29.6414 4.66413C30.5375 4.61495 31.418 4.40875 32.2428 4.05493C32.8319 3.76894 33.4799 3.62532 34.1346 3.63567C34.7606 3.92223 35.3087 4.35488 35.7328 4.89725C36.3026 5.56183 36.9841 6.1217 37.7467 6.55158C38.5595 6.89813 39.4267 7.10002 40.309 7.14815C40.9788 7.14904 41.6381 7.3142 42.2292 7.62916C42.6695 8.1626 42.9783 8.79204 43.1307 9.46673C43.3652 10.3248 43.7453 11.1361 44.2546 11.8654C44.8322 12.5305 45.5217 13.0893 46.292 13.5167C46.909 13.8202 47.4426 14.2697 47.8466 14.8262C48.0178 15.4962 48.0288 16.1971 47.8786 16.8721C47.7289 17.7569 47.7272 18.6604 47.8737 19.5457C48.109 20.3867 48.4865 21.1811 48.9898 21.8946C49.4281 22.4562 49.7223 23.1164 49.8469 23.8177C49.7225 24.519 49.4282 25.1791 48.9898 25.7404C48.486 26.4536 48.1085 27.2482 47.8737 28.0893C47.7272 28.9748 47.7288 29.8784 47.8786 30.7634C48.0291 31.4384 48.0177 32.1394 47.8453 32.8092C47.4418 33.3669 46.9079 33.8175 46.2902 34.1214C45.5196 34.5481 44.8296 35.1066 44.2516 35.7714C43.7435 36.5005 43.3643 37.3114 43.1306 38.1688C42.9775 38.8439 42.6684 39.4737 42.2279 40.0076C41.6368 40.3226 40.9775 40.4878 40.3078 40.4887C39.4253 40.5369 38.558 40.7389 37.7451 41.0856C36.982 41.5147 36.3003 42.0747 35.7312 42.7399C35.307 43.2819 34.7589 43.7141 34.1329 44.0002C33.4788 44.0099 32.8314 43.8661 32.2428 43.5805ZM44.4482 50.7787C44.165 50.7367 43.8759 50.7918 43.6278 50.9348C43.3798 51.0779 43.1874 51.3005 43.0818 51.5667L41.0945 56.6517L35.1212 46.3047C36.0575 45.8912 36.888 45.2709 37.5502 44.4905C37.9268 44.0454 38.3693 43.6607 38.8624 43.3498C39.4145 43.1438 39.9954 43.0256 40.5841 42.9996C41.7431 42.9809 42.8709 42.6206 43.8263 41.964C43.9263 41.8709 44.0206 41.7718 44.1087 41.6674L49.8432 51.6003L44.4482 50.7787ZM44.7955 23.8177C44.7955 20.8205 43.9067 17.8906 42.2416 15.3985C40.5764 12.9064 38.2097 10.9641 35.4406 9.8171C32.6716 8.67012 29.6246 8.37002 26.6849 8.95474C23.7453 9.53947 21.0451 10.9828 18.9258 13.1021C16.8064 15.2215 15.3631 17.9217 14.7784 20.8613C14.1937 23.8009 14.4938 26.8479 15.6408 29.6169C16.7878 32.386 18.7301 34.7528 21.2222 36.4179C23.7143 38.0831 26.6442 38.9719 29.6414 38.9719C33.6592 38.9675 37.5111 37.3695 40.3521 34.5285C43.1931 31.6875 44.7911 27.8355 44.7955 23.8177ZM29.6414 36.4462C27.1437 36.4462 24.7021 35.7055 22.6254 34.3179C20.5486 32.9302 18.93 30.958 17.9742 28.6504C17.0184 26.3429 16.7683 23.8037 17.2556 21.354C17.7428 18.9043 18.9456 16.6542 20.7117 14.888C22.4778 13.1219 24.728 11.9192 27.1777 11.4319C29.6274 10.9446 32.1665 11.1947 34.4741 12.1505C36.7816 13.1064 38.7539 14.725 40.1416 16.8017C41.5292 18.8785 42.2698 21.32 42.2698 23.8177C42.2659 27.1658 40.9341 30.3756 38.5667 32.743C36.1992 35.1105 32.9894 36.4422 29.6414 36.4462Z"/>
</mask>
<path d="M45.5042 39.0321L45.5257 38.9706C45.6807 38.3888 45.9227 37.8337 46.2435 37.3242C46.6509 36.8991 47.1213 36.5393 47.6383 36.2575C48.681 35.7257 49.5466 34.9021 50.1295 33.8871C50.5361 32.7965 50.6259 31.6131 50.3885 30.4735C50.2797 29.8674 50.2635 29.2482 50.3404 28.6372C50.5239 28.0811 50.7904 27.556 51.131 27.0796C51.8479 26.1332 52.2788 25.0013 52.3726 23.8177C52.2784 22.6348 51.8479 21.5034 51.132 20.557C50.7908 20.0804 50.5238 19.5548 50.3402 18.9982C50.2632 18.3876 50.2795 17.7689 50.3883 17.1631C50.6254 16.0237 50.5361 14.8405 50.1305 13.7495C49.5473 12.7355 48.6824 11.9125 47.6406 11.3804C47.123 11.0979 46.6521 10.7372 46.2445 10.3112C45.9235 9.80165 45.6811 9.24662 45.5256 8.66482C45.2568 7.52587 44.6675 6.48768 43.8274 5.67301C42.8721 5.0164 41.7443 4.65619 40.5852 4.63748C39.9965 4.61145 39.4156 4.49328 38.8636 4.28729C38.371 3.97555 37.9286 3.59093 37.5513 3.14657C36.8168 2.22422 35.827 1.53849 34.7054 1.17489C33.5706 1.01433 32.4136 1.1906 31.378 1.68179C30.8266 1.92386 30.2406 2.07794 29.6414 2.13844C29.0427 2.07816 28.4571 1.9242 27.9062 1.68217C26.8705 1.19017 25.7128 1.01447 24.5777 1.17703C23.4566 1.53931 22.4671 2.22375 21.7326 3.14492C21.356 3.58996 20.9134 3.97467 20.4203 4.28565C19.8683 4.49164 19.2873 4.60981 18.6987 4.63584C17.5396 4.65455 16.4118 5.01476 15.4565 5.67137C14.6162 6.48659 14.0266 7.52505 13.7571 8.66432C13.6021 9.24613 13.3601 9.80118 13.0393 10.3107C12.6319 10.7358 12.1614 11.0956 11.6444 11.3774C10.6017 11.9092 9.7362 12.7328 9.15322 13.7478C8.74667 14.8384 8.65688 16.0219 8.89421 17.1614C9.00303 17.7675 9.01926 18.3867 8.94233 18.9977C8.75888 19.5538 8.49235 20.0789 8.15179 20.5553C7.43473 21.5018 7.00386 22.6339 6.91016 23.8177C7.00439 25.0006 7.43484 26.132 8.15078 27.0784C8.49196 27.555 8.75893 28.0806 8.94258 28.6372C9.01958 29.248 9.00336 29.867 8.89447 30.4729C8.65732 31.6123 8.74666 32.7956 9.15221 33.8865C9.73544 34.9005 10.6004 35.7235 11.6422 36.2556C12.1597 36.5381 12.6306 36.8988 13.0382 37.3248C13.3593 37.8344 13.6016 38.3894 13.7572 38.9712L13.7805 39.0384C13.7765 39.045 13.7697 39.0484 13.7658 39.0551L7.25176 50.3375C7.01367 50.7494 6.89683 51.2202 6.91472 51.6957C6.93261 52.1712 7.0845 52.6319 7.35287 53.0248C7.62124 53.4177 7.99517 53.7268 8.43156 53.9164C8.86795 54.106 9.34904 54.1684 9.81937 54.0964L14.2158 53.428L15.8363 57.5729C16.0078 58.0169 16.3022 58.4029 16.685 58.6857C17.0678 58.9685 17.5232 59.1364 17.9979 59.1699C18.0633 59.1749 18.1286 59.1774 18.1941 59.1774C18.6369 59.1785 19.072 59.0622 19.4552 58.8403C19.8385 58.6185 20.156 58.299 20.3756 57.9145L27.1228 46.2266C27.391 46.1403 27.6521 46.0454 27.9046 45.9532C28.4561 45.7113 29.0422 45.5573 29.6414 45.497C30.2401 45.5572 30.8256 45.7112 31.3765 45.9532C31.6291 46.0457 31.8932 46.1374 32.1615 46.224L32.1671 46.2407L38.9067 57.9145C39.1263 58.299 39.4439 58.6185 39.8271 58.8403C40.2104 59.0622 40.6455 59.1785 41.0883 59.1774C41.1536 59.1774 41.219 59.1749 41.2844 59.1699C41.7595 59.1363 42.2152 58.9682 42.5983 58.6852C42.9813 58.4021 43.2759 58.0159 43.4476 57.5717L45.0668 53.428L49.4615 54.0964C49.932 54.1688 50.4133 54.1066 50.8499 53.9172C51.2866 53.7277 51.6608 53.4187 51.9294 53.0257C52.1981 52.6328 52.3501 52.1719 52.3681 51.6963C52.3861 51.2206 52.2692 50.7496 52.031 50.3375L45.5042 39.0321ZM18.1883 56.6517L16.2015 51.567C16.0963 51.3006 15.904 51.0776 15.6558 50.9346C15.4077 50.7915 15.1184 50.7366 14.8351 50.779L9.43951 51.6003L15.1742 41.6671C15.2619 41.7711 15.3558 41.8697 15.4553 41.9624C16.4107 42.619 17.5385 42.9792 18.6976 42.9979C19.2862 43.024 19.8671 43.1421 20.4192 43.3481C20.9117 43.6599 21.3542 44.0445 21.7314 44.4888C22.3938 45.2699 23.2245 45.8907 24.1611 46.3047L18.1883 56.6517ZM32.2428 43.5805C31.4179 43.2272 30.5374 43.0211 29.6414 42.9713C28.7452 43.0205 27.8647 43.2267 27.0399 43.5805C26.4513 43.8677 25.803 44.0114 25.1482 43.9997C24.5221 43.7132 23.974 43.2805 23.5499 42.7382C22.9802 42.0736 22.2986 41.5137 21.5361 41.0838C20.7232 40.7373 19.8561 40.5354 18.9737 40.4873C18.304 40.4864 17.6447 40.3212 17.0536 40.0062C16.6133 39.4728 16.3045 38.8434 16.152 38.1687C15.9176 37.3106 15.5374 36.4993 15.0281 35.77C14.4505 35.1049 13.761 34.5461 12.9908 34.1187C12.3737 33.8152 11.8401 33.3657 11.4362 32.8092C11.2649 32.1392 11.2539 31.4383 11.4041 30.7634C11.5539 29.8785 11.5555 28.975 11.409 28.0897C11.1738 27.2487 10.7963 26.4543 10.2929 25.7408C9.85468 25.1792 9.56043 24.519 9.43585 23.8177C9.56027 23.1164 9.85454 22.4563 10.2929 21.895C10.7968 21.1818 11.1743 20.3872 11.409 19.5461C11.5556 18.6607 11.5539 17.757 11.4041 16.8721C11.2536 16.197 11.2651 15.496 11.4375 14.8262C11.8409 14.2685 12.3748 13.8179 12.9925 13.514C13.7632 13.0873 14.4532 12.5288 15.0311 11.864C15.5393 11.1349 15.9184 10.324 16.1522 9.4666C16.3053 8.79163 16.6144 8.16193 17.0548 7.62803C17.6459 7.31307 18.3052 7.1479 18.975 7.14701C19.8575 7.0988 20.7248 6.89678 21.5377 6.55006C22.3008 6.12097 22.9825 5.561 23.5516 4.89573C23.9758 4.35377 24.5239 3.92156 25.1498 3.63541C25.8042 3.62496 26.4518 3.76858 27.0404 4.05468C27.8652 4.40796 28.7455 4.61422 29.6414 4.66413C30.5375 4.61495 31.418 4.40875 32.2428 4.05493C32.8319 3.76894 33.4799 3.62532 34.1346 3.63567C34.7606 3.92223 35.3087 4.35488 35.7328 4.89725C36.3026 5.56183 36.9841 6.1217 37.7467 6.55158C38.5595 6.89813 39.4267 7.10002 40.309 7.14815C40.9788 7.14904 41.6381 7.3142 42.2292 7.62916C42.6695 8.1626 42.9783 8.79204 43.1307 9.46673C43.3652 10.3248 43.7453 11.1361 44.2546 11.8654C44.8322 12.5305 45.5217 13.0893 46.292 13.5167C46.909 13.8202 47.4426 14.2697 47.8466 14.8262C48.0178 15.4962 48.0288 16.1971 47.8786 16.8721C47.7289 17.7569 47.7272 18.6604 47.8737 19.5457C48.109 20.3867 48.4865 21.1811 48.9898 21.8946C49.4281 22.4562 49.7223 23.1164 49.8469 23.8177C49.7225 24.519 49.4282 25.1791 48.9898 25.7404C48.486 26.4536 48.1085 27.2482 47.8737 28.0893C47.7272 28.9748 47.7288 29.8784 47.8786 30.7634C48.0291 31.4384 48.0177 32.1394 47.8453 32.8092C47.4418 33.3669 46.9079 33.8175 46.2902 34.1214C45.5196 34.5481 44.8296 35.1066 44.2516 35.7714C43.7435 36.5005 43.3643 37.3114 43.1306 38.1688C42.9775 38.8439 42.6684 39.4737 42.2279 40.0076C41.6368 40.3226 40.9775 40.4878 40.3078 40.4887C39.4253 40.5369 38.558 40.7389 37.7451 41.0856C36.982 41.5147 36.3003 42.0747 35.7312 42.7399C35.307 43.2819 34.7589 43.7141 34.1329 44.0002C33.4788 44.0099 32.8314 43.8661 32.2428 43.5805ZM44.4482 50.7787C44.165 50.7367 43.8759 50.7918 43.6278 50.9348C43.3798 51.0779 43.1874 51.3005 43.0818 51.5667L41.0945 56.6517L35.1212 46.3047C36.0575 45.8912 36.888 45.2709 37.5502 44.4905C37.9268 44.0454 38.3693 43.6607 38.8624 43.3498C39.4145 43.1438 39.9954 43.0256 40.5841 42.9996C41.7431 42.9809 42.8709 42.6206 43.8263 41.964C43.9263 41.8709 44.0206 41.7718 44.1087 41.6674L49.8432 51.6003L44.4482 50.7787ZM44.7955 23.8177C44.7955 20.8205 43.9067 17.8906 42.2416 15.3985C40.5764 12.9064 38.2097 10.9641 35.4406 9.8171C32.6716 8.67012 29.6246 8.37002 26.6849 8.95474C23.7453 9.53947 21.0451 10.9828 18.9258 13.1021C16.8064 15.2215 15.3631 17.9217 14.7784 20.8613C14.1937 23.8009 14.4938 26.8479 15.6408 29.6169C16.7878 32.386 18.7301 34.7528 21.2222 36.4179C23.7143 38.0831 26.6442 38.9719 29.6414 38.9719C33.6592 38.9675 37.5111 37.3695 40.3521 34.5285C43.1931 31.6875 44.7911 27.8355 44.7955 23.8177ZM29.6414 36.4462C27.1437 36.4462 24.7021 35.7055 22.6254 34.3179C20.5486 32.9302 18.93 30.958 17.9742 28.6504C17.0184 26.3429 16.7683 23.8037 17.2556 21.354C17.7428 18.9043 18.9456 16.6542 20.7117 14.888C22.4778 13.1219 24.728 11.9192 27.1777 11.4319C29.6274 10.9446 32.1665 11.1947 34.4741 12.1505C36.7816 13.1064 38.7539 14.725 40.1416 16.8017C41.5292 18.8785 42.2698 21.32 42.2698 23.8177C42.2659 27.1658 40.9341 30.3756 38.5667 32.743C36.1992 35.1105 32.9894 36.4422 29.6414 36.4462Z" fill="url(#paint2_linear_876_53642)" stroke="white" stroke-width="0.505753" mask="url(#path-3-inside-1_876_53642)"/>
<path d="M52.7587 0.271379C52.4956 0.199405 52.2142 0.236387 51.9766 0.374184C51.7389 0.51198 51.5644 0.739306 51.4914 1.00615L50.5281 4.52768C50.4551 4.79452 50.4896 5.07904 50.624 5.31862C50.7584 5.5582 50.9818 5.73323 51.2449 5.80521C51.508 5.87718 51.7893 5.8402 52.027 5.70241C52.2647 5.56461 52.4392 5.33728 52.5122 5.07044L53.4755 1.54891C53.5485 1.28207 53.514 0.997556 53.3796 0.757973C53.2451 0.51839 53.0218 0.343354 52.7587 0.271379Z" fill="url(#paint3_linear_876_53642)"/>
<path d="M60.6139 8.41456C60.4794 8.17505 60.2561 8.00007 59.993 7.92811C59.73 7.85615 59.4487 7.8931 59.2111 8.03083L56.0745 9.84938C55.9544 9.91628 55.8484 10.0066 55.7628 10.1152C55.6773 10.2237 55.6138 10.3482 55.5761 10.4815C55.5384 10.6148 55.5273 10.7542 55.5433 10.8915C55.5594 11.0288 55.6023 11.1612 55.6696 11.2812C55.7369 11.4011 55.8272 11.5061 55.9353 11.5901C56.0434 11.674 56.1671 11.7352 56.2991 11.7701C56.4312 11.805 56.5689 11.8128 56.7044 11.7932C56.8399 11.7736 56.9703 11.7269 57.0881 11.6558L60.2247 9.83726C60.4623 9.69945 60.6367 9.47216 60.7097 9.20536C60.7827 8.93857 60.7482 8.65412 60.6139 8.41456Z" fill="url(#paint4_linear_876_53642)"/>
<path d="M61.0579 17.6818L57.5857 16.7319C57.3226 16.66 57.0412 16.6969 56.8036 16.8347C56.5659 16.9725 56.3914 17.1999 56.3184 17.4667C56.2454 17.7336 56.2799 18.0181 56.4143 18.2577C56.5487 18.4972 56.7721 18.6723 57.0352 18.7442L60.5074 19.6941C60.7706 19.766 61.0519 19.7291 61.2896 19.5913C61.5272 19.4535 61.7017 19.2262 61.7747 18.9593C61.8477 18.6925 61.8132 18.4079 61.6788 18.1684C61.5444 17.9288 61.321 17.7537 61.0579 17.6818Z" fill="url(#paint5_linear_876_53642)"/>
<defs>
<linearGradient id="paint0_linear_876_53642" x1="15.2715" y1="23.5875" x2="43.4895" y2="23.5875" gradientUnits="userSpaceOnUse">
<stop stop-color="#FFCED4"/>
<stop offset="1" stop-color="#EE9CA7"/>
</linearGradient>
<linearGradient id="paint1_linear_876_53642" x1="21.4157" y1="20.2079" x2="34.2196" y2="30.1335" gradientUnits="userSpaceOnUse">
<stop stop-color="#5FC9DA"/>
<stop offset="1" stop-color="#2A7C89"/>
</linearGradient>
<linearGradient id="paint2_linear_876_53642" x1="-7.29686" y1="3.65732" x2="71.4283" y2="32.3287" gradientUnits="userSpaceOnUse">
<stop stop-color="#5FC9DA"/>
<stop offset="1" stop-color="#2A7C89"/>
</linearGradient>
<linearGradient id="paint3_linear_876_53642" x1="47.1562" y1="-0.504155" x2="68.2639" y2="15.7016" gradientUnits="userSpaceOnUse">
<stop stop-color="#5FC9DA"/>
<stop offset="1" stop-color="#2A7C89"/>
</linearGradient>
<linearGradient id="paint4_linear_876_53642" x1="47.1562" y1="-0.504155" x2="68.2639" y2="15.7016" gradientUnits="userSpaceOnUse">
<stop stop-color="#5FC9DA"/>
<stop offset="1" stop-color="#2A7C89"/>
</linearGradient>
<linearGradient id="paint5_linear_876_53642" x1="47.1562" y1="-0.504155" x2="68.2639" y2="15.7016" gradientUnits="userSpaceOnUse">
<stop stop-color="#5FC9DA"/>
<stop offset="1" stop-color="#2A7C89"/>
</linearGradient>
</defs>
</svg>
