<svg width="71" height="61" viewBox="0 0 71 61" fill="none" xmlns="http://www.w3.org/2000/svg">
<path opacity="0.4" d="M22.9697 21.054V31.4642V32.6209H27.5965L31.0665 34.9343V25.6808L33.3799 23.3674L56.5136 10.6439L48.4168 7.17383L26.4398 19.8974L22.9697 21.054Z" fill="url(#paint0_linear_876_53672)"/>
<path d="M67.555 15.4524L40.7518 1.49383C40.6189 1.42467 40.4724 1.38867 40.3239 1.38867C40.1754 1.38867 40.0289 1.42467 39.896 1.49383L13.0929 15.4524C12.9337 15.5352 12.7999 15.6626 12.7064 15.8202C12.6129 15.9778 12.5634 16.1595 12.5635 16.3447V44.2619C12.5625 44.448 12.6116 44.6307 12.7051 44.7893C12.7987 44.9478 12.933 45.076 13.0929 45.1592L39.896 59.1177C40.0289 59.1869 40.1754 59.2229 40.3239 59.2229C40.4724 59.2229 40.6189 59.1869 40.7518 59.1177L67.555 45.1592C67.7148 45.076 67.8491 44.9478 67.9427 44.7893C68.0362 44.6307 68.0853 44.448 68.0843 44.2619V16.3447C68.0844 16.1595 68.0349 15.9778 67.9414 15.8202C67.8479 15.6626 67.7141 15.5352 67.555 15.4524ZM40.3239 29.1886L32.841 25.2912L56.759 12.0575L64.9914 16.3447L40.3239 29.1886ZM25.183 21.303L49.101 8.0693L54.6531 10.9607L30.738 24.1964L25.183 21.303ZM24.0506 22.9431L29.7941 25.9343V33.8787L27.5991 31.5925C27.4196 31.4055 27.1762 31.3004 26.9223 31.3003H24.0506V22.9431ZM40.3239 3.50087L46.9979 6.97256L23.0799 20.2083L15.6612 16.3447L40.3239 3.50087ZM14.478 17.9579L22.1361 21.9461V32.2974C22.1361 32.5618 22.2369 32.8154 22.4164 33.0024C22.5959 33.1894 22.8394 33.2944 23.0933 33.2944H26.526L30.0746 36.9904C30.2084 37.1298 30.379 37.2248 30.5647 37.2632C30.7503 37.3017 30.9428 37.2819 31.1177 37.2065C31.2925 37.131 31.442 37.0033 31.5472 36.8393C31.6524 36.6754 31.7086 36.4827 31.7086 36.2855V26.9313L39.3667 30.9195V56.6072L14.478 43.6457V17.9579ZM41.2812 56.6072V30.9195L66.1698 17.9579V43.6457L41.2812 56.6072Z" fill="url(#paint1_linear_876_53672)"/>
<path fill-rule="evenodd" clip-rule="evenodd" d="M61.1518 39.0322C61.1518 37.4549 59.7848 36.0879 58.2075 36.0879C57.4715 36.0879 56.7354 36.4033 56.2096 36.8239L50.7417 41.9765C50.0056 42.6074 49.585 43.5538 49.585 44.5001C49.585 45.4465 50.0056 46.3929 50.7417 47.0238L56.2096 52.0711C56.7354 52.5969 57.4714 52.8072 58.2075 52.8072C59.7848 52.8072 61.1517 51.4402 61.1517 49.8629V49.7578H61.5723C63.0445 49.7578 64.3063 51.0196 64.3063 52.4918V52.9124C64.3063 53.9639 63.8857 54.9103 63.0445 55.6464C62.2032 56.2773 61.1517 56.6979 60.1002 56.9082L58.8384 57.1185C58.3126 57.2237 57.892 57.7494 57.9972 58.2752C58.1023 58.801 58.5229 59.2216 59.0487 59.2216H60.1002C65.8837 59.2215 70.6155 54.4896 70.6155 48.7062C70.6155 43.4486 66.4094 39.2425 61.1518 39.2425V39.0322Z" fill="white"/>
<path fill-rule="evenodd" clip-rule="evenodd" d="M61.1518 39.0322C61.1518 37.4549 59.7848 36.0879 58.2075 36.0879C57.4715 36.0879 56.7354 36.4033 56.2096 36.8239L50.7417 41.9765C50.0056 42.6074 49.585 43.5538 49.585 44.5001C49.585 45.4465 50.0056 46.3929 50.7417 47.0238L56.2096 52.0711C56.7354 52.5969 57.4714 52.8072 58.2075 52.8072C59.7848 52.8072 61.1517 51.4402 61.1517 49.8629V49.7578H61.5723C63.0445 49.7578 64.3063 51.0196 64.3063 52.4918V52.9124C64.3063 53.9639 63.8857 54.9103 63.0445 55.6464C62.2032 56.2773 61.1517 56.6979 60.1002 56.9082L58.8384 57.1185C58.3126 57.2237 57.892 57.7494 57.9972 58.2752C58.1023 58.801 58.5229 59.2216 59.0487 59.2216H60.1002C65.8837 59.2215 70.6155 54.4896 70.6155 48.7062C70.6155 43.4486 66.4094 39.2425 61.1518 39.2425V39.0322Z" fill="url(#paint2_linear_876_53672)" fill-opacity="0.5"/>
<path fill-rule="evenodd" clip-rule="evenodd" d="M58.2075 38.191C58.6281 38.191 59.0488 38.6116 59.0488 39.0322V40.294C59.0488 40.925 59.4694 41.3455 60.1003 41.3455H61.1518C65.2527 41.3455 68.5125 44.6053 68.5125 48.7062C68.5125 51.0196 67.5661 53.0175 66.1991 54.5948C66.3043 53.9639 66.4094 53.4381 66.4094 52.9124V52.5969C66.4094 49.8629 64.2012 47.7599 61.5724 47.7599H60.1003C59.4694 47.7599 59.0488 48.1805 59.0488 48.8114V50.0732C59.0488 50.4938 58.6282 50.9145 58.2075 50.9145C57.9972 50.9145 57.7869 50.8093 57.6817 50.7042L52.1086 45.4465C51.7932 45.2362 51.688 44.9207 51.688 44.5001C51.688 44.0795 51.7932 43.7641 52.1086 43.5538L57.5766 38.5064C57.7869 38.2961 57.9972 38.191 58.2075 38.191ZM61.1518 39.0322C61.1518 37.4549 59.7848 36.0879 58.2075 36.0879C57.4715 36.0879 56.7354 36.4033 56.2096 36.8239L50.7417 41.9765C50.0056 42.6074 49.585 43.5538 49.585 44.5001C49.585 45.4465 50.0056 46.3929 50.7417 47.0238L56.2096 52.0711C56.7354 52.5969 57.4714 52.8072 58.2075 52.8072C59.7848 52.8072 61.1517 51.4402 61.1517 49.8629V49.7578H61.5723C63.0445 49.7578 64.3063 51.0196 64.3063 52.4918V52.9124C64.3063 53.9639 63.8857 54.9103 63.0445 55.6464C62.2032 56.2773 61.1517 56.6979 60.1002 56.9082L58.8384 57.1185C58.3126 57.2237 57.892 57.7494 57.9972 58.2752C58.1023 58.801 58.5229 59.2216 59.0487 59.2216H60.1002C65.8837 59.2215 70.6155 54.4896 70.6155 48.7062C70.6155 43.4486 66.4094 39.2425 61.1518 39.2425V39.0322Z" fill="url(#paint3_linear_876_53672)"/>
<path d="M9.05383 0.0350514C9.31694 -0.0369231 9.59828 5.93533e-05 9.83594 0.137855C10.0736 0.275651 10.2481 0.502978 10.3211 0.769825L11.2844 4.29135C11.3574 4.5582 11.3229 4.84271 11.1885 5.08229C11.0541 5.32187 10.8307 5.4969 10.5676 5.56888C10.3045 5.64085 10.0232 5.60388 9.78549 5.46608C9.54783 5.32828 9.3733 5.10096 9.3003 4.83411L8.33699 1.31259C8.264 1.04574 8.29851 0.761228 8.43295 0.521645C8.56738 0.282062 8.79072 0.107026 9.05383 0.0350514Z" fill="url(#paint4_linear_876_53672)"/>
<path d="M1.19864 8.17823C1.33309 7.93872 1.55639 7.76374 1.81945 7.69178C2.08251 7.61982 2.36379 7.65677 2.60143 7.7945L5.738 9.61306C5.85814 9.67995 5.96409 9.7703 6.04967 9.87883C6.13524 9.98737 6.19872 10.1119 6.23641 10.2452C6.2741 10.3785 6.28525 10.5178 6.26919 10.6551C6.25313 10.7924 6.21019 10.9249 6.14288 11.0449C6.07558 11.1648 5.98525 11.2698 5.87717 11.3538C5.76909 11.4377 5.64542 11.4989 5.51337 11.5338C5.38133 11.5686 5.24356 11.5765 5.1081 11.5569C4.97264 11.5373 4.8422 11.4905 4.7244 11.4195L1.58782 9.60093C1.35022 9.46312 1.17575 9.23583 1.10277 8.96904C1.02979 8.70224 1.06427 8.41779 1.19864 8.17823Z" fill="url(#paint5_linear_876_53672)"/>
<path d="M0.754596 17.4454L4.22684 16.4956C4.48995 16.4236 4.77128 16.4606 5.00895 16.5984C5.24661 16.7362 5.42114 16.9635 5.49413 17.2304C5.56713 17.4972 5.53262 17.7817 5.39819 18.0213C5.26375 18.2609 5.04041 18.4359 4.7773 18.5079L1.30506 19.4577C1.04194 19.5297 0.76061 19.4927 0.522945 19.3549C0.28528 19.2171 0.110751 18.9898 0.0377554 18.723C-0.0352406 18.4561 -0.000726449 18.1716 0.133707 17.932C0.268139 17.6924 0.491482 17.5174 0.754596 17.4454Z" fill="url(#paint6_linear_876_53672)"/>
<defs>
<linearGradient id="paint0_linear_876_53672" x1="22.9697" y1="21.054" x2="56.5136" y2="21.054" gradientUnits="userSpaceOnUse">
<stop stop-color="#FFCED4"/>
<stop offset="1" stop-color="#EE9CA7"/>
</linearGradient>
<linearGradient id="paint1_linear_876_53672" x1="-4.78679" y1="3.91892" x2="86.0066" y2="44.4592" gradientUnits="userSpaceOnUse">
<stop stop-color="#5FC9DA"/>
<stop offset="1" stop-color="#2A7C89"/>
</linearGradient>
<linearGradient id="paint2_linear_876_53672" x1="49.585" y1="47.6547" x2="70.6155" y2="47.6547" gradientUnits="userSpaceOnUse">
<stop stop-color="#FFCED4"/>
<stop offset="1" stop-color="#EE9CA7"/>
</linearGradient>
<linearGradient id="paint3_linear_876_53672" x1="43.0129" y1="37.1" x2="78.0049" y2="51.8957" gradientUnits="userSpaceOnUse">
<stop stop-color="#5FC9DA"/>
<stop offset="1" stop-color="#2A7C89"/>
</linearGradient>
<linearGradient id="paint4_linear_876_53672" x1="14.6563" y1="-0.740483" x2="-6.45139" y2="15.4653" gradientUnits="userSpaceOnUse">
<stop stop-color="#5FC9DA"/>
<stop offset="1" stop-color="#2A7C89"/>
</linearGradient>
<linearGradient id="paint5_linear_876_53672" x1="14.6563" y1="-0.740483" x2="-6.45139" y2="15.4653" gradientUnits="userSpaceOnUse">
<stop stop-color="#5FC9DA"/>
<stop offset="1" stop-color="#2A7C89"/>
</linearGradient>
<linearGradient id="paint6_linear_876_53672" x1="14.6563" y1="-0.740483" x2="-6.45139" y2="15.4653" gradientUnits="userSpaceOnUse">
<stop stop-color="#5FC9DA"/>
<stop offset="1" stop-color="#2A7C89"/>
</linearGradient>
</defs>
</svg>
