<svg width="69" height="61" viewBox="0 0 69 61" fill="none" xmlns="http://www.w3.org/2000/svg">
<path opacity="0.4" d="M30.9293 30.1004V58.0053L55.8444 45.0495V17.1445L30.9293 30.1004Z" fill="url(#paint0_linear_900_44347)"/>
<path opacity="0.4" d="M45.8793 23.1307V29.1103V30.1069L40.8963 33.0968V25.1239L39.8997 24.1273L14.9846 11.1715L19.9676 8.18164L43.8861 21.1375L45.8793 23.1307Z" fill="url(#paint1_linear_900_44347)"/>
<path d="M54.7286 18.5254L47.38 22.5605L47.3068 22.6006V30.6748C47.3067 31.0892 47.0812 31.4711 46.7179 31.6709L41.2521 34.6787C41.0812 34.7728 40.8926 34.8203 40.7042 34.8203C40.5039 34.8203 40.3029 34.7665 40.1241 34.6611C39.7788 34.4567 39.5665 34.0848 39.5665 33.6826V26.8506L39.3566 26.9668L31.7843 31.125L31.7101 31.165V56.583L31.921 56.4668L54.8654 43.8682L54.9396 43.8271V18.4102L54.7286 18.5254ZM44.8224 23.9658L41.9152 25.5615L41.8409 25.6025V31.7588L42.0519 31.6436L44.9591 30.043L45.0323 30.0029V23.8496L44.8224 23.9658ZM15.1232 12.2607L7.65149 16.3643L7.42493 16.4883L7.65149 16.6133L30.5011 29.1592L30.5695 29.1973L30.6378 29.1592L38.1105 25.0566L38.337 24.9316L38.1105 24.8076L15.2599 12.2607L15.1915 12.2236L15.1232 12.2607ZM20.6349 9.23438L17.7814 10.8018L17.5548 10.9258L17.7814 11.0508L40.631 23.5977L40.6993 23.6348L40.7677 23.5977L43.6222 22.0303L43.8488 21.9053L43.6222 21.7812L20.7716 9.23438L20.7032 9.19629L20.6349 9.23438ZM30.5011 3.81641L23.2931 7.77441L23.0665 7.89941L23.2931 8.02344L46.1427 20.5703L46.2111 20.6084L46.2794 20.5703L53.4874 16.6133L53.714 16.4883L53.4874 16.3643L30.6378 3.81641L30.5695 3.7793L30.5011 3.81641ZM29.4366 31.1699L29.3624 31.1289L6.41028 18.5254L6.19934 18.4102V35.2217L3.92493 37.1455V16.4883C3.92499 16.073 4.15115 15.6906 4.51477 15.4912L19.8585 7.06641L19.8741 7.05762L19.8868 7.0459C20.0259 6.91614 20.1944 6.82506 20.3751 6.77734L20.3927 6.77246L20.4073 6.76465L30.0216 1.48535C30.3623 1.29836 30.7756 1.2984 31.1163 1.48535L56.6241 15.4912C56.9877 15.6906 57.2139 16.0734 57.214 16.4883V44.501C57.2138 44.9157 56.9869 45.2972 56.6232 45.4971L31.1163 59.5029C30.9465 59.5965 30.7579 59.6435 30.5695 59.6436C30.3826 59.6436 30.1959 59.5971 30.0265 59.5049L19.0519 52.0947L19.9523 50.0684L29.214 56.4639L29.4366 56.6182V31.1699Z" fill="url(#paint2_linear_900_44347)" stroke="white" stroke-width="0.283905"/>
<path d="M4.05835 51.7208C3.62341 52.0275 2.99036 51.9244 2.64874 51.4768C-0.283243 47.6345 -0.674748 42.5711 1.6416 38.5766C3.45471 35.45 6.66403 33.4378 10.2718 33.0172L10.5927 32.9797L10.3485 32.7681L7.61171 30.4055C7.18366 30.0358 7.13664 29.4211 7.48589 29.032C7.79446 28.6886 8.31998 28.6217 8.73557 28.8627C8.79275 28.8958 8.84819 28.9347 8.90029 28.9796L13.8969 33.2951C14.0763 33.4501 14.1963 33.6565 14.2384 33.8781L14.2517 33.9739L14.2545 34.0703C14.2514 34.2927 14.1694 34.5037 14.0219 34.6681L9.81464 39.3515C9.46335 39.7423 8.83053 39.774 8.40072 39.4031C7.9729 39.0334 7.92646 38.4191 8.27574 38.0301L10.8409 35.1738L11.0881 34.8994L10.7203 34.9379C7.66625 35.2601 4.93524 36.948 3.39961 39.596C1.4611 42.939 1.79388 47.1686 4.23738 50.3706C4.57631 50.815 4.48928 51.4168 4.05835 51.7208Z" fill="url(#paint3_linear_900_44347)" stroke="white" stroke-width="0.283905"/>
<path d="M15.9348 60.0007C15.5836 60.3915 14.9507 60.423 14.5209 60.0523L9.52381 55.7376C9.09586 55.3679 9.04938 54.7537 9.39883 54.3647L13.6061 49.6812C13.9147 49.3378 14.4402 49.2709 14.8558 49.5118C14.9127 49.5449 14.9672 49.5844 15.0192 49.6292C15.4473 49.9989 15.4944 50.6136 15.145 51.0026L12.5808 53.8573L12.3331 54.1325L12.7014 54.0932C15.7549 53.7688 18.4892 52.0783 20.0211 49.4367C21.9597 46.0938 21.6275 41.8645 19.1842 38.6627C18.8449 38.2182 18.9317 37.6152 19.3629 37.3111C19.6854 37.0839 20.1175 37.0816 20.46 37.2802C20.578 37.3487 20.6844 37.4413 20.772 37.556C23.7042 41.3982 24.0966 46.462 21.78 50.4567C19.9708 53.5763 16.7552 55.5916 13.1464 56.0141L12.8255 56.0516L13.0702 56.2623L15.809 58.6273C16.237 58.997 16.2841 59.6116 15.9348 60.0007Z" fill="url(#paint4_linear_900_44347)" stroke="white" stroke-width="0.283905"/>
<path d="M56.9553 4.42647C56.6959 4.40712 56.4393 4.49308 56.242 4.66542C56.0447 4.83776 55.9228 5.08238 55.9032 5.34546L55.6443 8.81726C55.6246 9.08034 55.7089 9.34034 55.8784 9.54004C56.048 9.73975 56.2889 9.86281 56.5483 9.88216C56.8077 9.90151 57.0643 9.81556 57.2616 9.64321C57.4589 9.47087 57.5808 9.22625 57.6004 8.96317L57.8593 5.49137C57.879 5.22829 57.7947 4.9683 57.6252 4.76859C57.4556 4.56888 57.2147 4.44582 56.9553 4.42647Z" fill="url(#paint5_linear_900_44347)"/>
<path d="M65.7935 10.6146C65.624 10.415 65.383 10.2919 65.1237 10.2726C64.8643 10.2533 64.6078 10.3392 64.4105 10.5115L61.8067 12.786C61.7065 12.8705 61.6238 12.9744 61.5635 13.0916C61.5032 13.2088 61.4665 13.3369 61.4556 13.4686C61.4446 13.6002 61.4596 13.7327 61.4997 13.8582C61.5398 13.9838 61.6042 14.1 61.689 14.2C61.7739 14.2999 61.8776 14.3817 61.9941 14.4406C62.1106 14.4994 62.2375 14.5341 62.3675 14.5427C62.4974 14.5512 62.6278 14.5334 62.751 14.4903C62.8742 14.4473 62.9878 14.3797 63.085 14.2917L65.6889 12.0172C65.8861 11.8449 66.0079 11.6003 66.0275 11.3373C66.0472 11.0742 65.963 10.8143 65.7935 10.6146Z" fill="url(#paint6_linear_900_44347)"/>
<path d="M67.9003 19.2073L64.4771 18.952C64.2177 18.9326 63.9612 19.0186 63.7639 19.1909C63.5666 19.3633 63.4447 19.6079 63.4251 19.871C63.4055 20.134 63.4897 20.394 63.6592 20.5937C63.8288 20.7934 64.0697 20.9165 64.3291 20.9359L67.7524 21.1912C68.0118 21.2105 68.2683 21.1246 68.4656 20.9522C68.6629 20.7799 68.7848 20.5353 68.8044 20.2722C68.824 20.0091 68.7398 19.7491 68.5703 19.5494C68.4007 19.3497 68.1597 19.2267 67.9003 19.2073Z" fill="url(#paint7_linear_900_44347)"/>
<defs>
<linearGradient id="paint0_linear_900_44347" x1="30.9293" y1="37.5749" x2="55.8444" y2="37.5749" gradientUnits="userSpaceOnUse">
<stop stop-color="#FFCED4"/>
<stop offset="1" stop-color="#EE9CA7"/>
</linearGradient>
<linearGradient id="paint1_linear_900_44347" x1="45.8793" y1="20.6392" x2="14.9846" y2="20.6392" gradientUnits="userSpaceOnUse">
<stop stop-color="#FFCED4"/>
<stop offset="1" stop-color="#EE9CA7"/>
</linearGradient>
<linearGradient id="paint2_linear_900_44347" x1="-12.958" y1="3.7661" x2="76.0183" y2="41.6111" gradientUnits="userSpaceOnUse">
<stop stop-color="#5FC9DA"/>
<stop offset="1" stop-color="#2A7C89"/>
</linearGradient>
<linearGradient id="paint3_linear_900_44347" x1="6.8451" y1="53.0065" x2="-6.43756" y2="41.6649" gradientUnits="userSpaceOnUse">
<stop stop-color="#5FC9DA"/>
<stop offset="1" stop-color="#2A7C89"/>
</linearGradient>
<linearGradient id="paint4_linear_900_44347" x1="18.7824" y1="61.5476" x2="5.49978" y2="50.2059" gradientUnits="userSpaceOnUse">
<stop stop-color="#5FC9DA"/>
<stop offset="1" stop-color="#2A7C89"/>
</linearGradient>
<linearGradient id="paint5_linear_900_44347" x1="51.5701" y1="4.72302" x2="74.2835" y2="16.0389" gradientUnits="userSpaceOnUse">
<stop stop-color="#5FC9DA"/>
<stop offset="1" stop-color="#2A7C89"/>
</linearGradient>
<linearGradient id="paint6_linear_900_44347" x1="51.5701" y1="4.72302" x2="74.2835" y2="16.0389" gradientUnits="userSpaceOnUse">
<stop stop-color="#5FC9DA"/>
<stop offset="1" stop-color="#2A7C89"/>
</linearGradient>
<linearGradient id="paint7_linear_900_44347" x1="51.5701" y1="4.72302" x2="74.2835" y2="16.0389" gradientUnits="userSpaceOnUse">
<stop stop-color="#5FC9DA"/>
<stop offset="1" stop-color="#2A7C89"/>
</linearGradient>
</defs>
</svg>
