<svg width="34" height="34" viewBox="0 0 34 34" fill="none" xmlns="http://www.w3.org/2000/svg">
<g clip-path="url(#clip0_750_43849)">
<path d="M33.5009 4.19152C33.5009 3.0809 33.0597 2.01576 32.2744 1.23043C31.4891 0.4451 30.4239 0.00390625 29.3133 0.00390625L4.18762 0.00390625C3.07699 0.00390625 2.01186 0.4451 1.22652 1.23043C0.441194 2.01576 0 3.0809 0 4.19152L0 20.942C0 22.0526 0.441194 23.1178 1.22652 23.9031C2.01186 24.6884 3.07699 25.1296 4.18762 25.1296H24.2589C24.8141 25.1297 25.3466 25.3504 25.7392 25.7431L31.7128 31.7167C31.8591 31.8634 32.0456 31.9634 32.2488 32.004C32.4519 32.0446 32.6625 32.024 32.854 31.9449C33.0454 31.8658 33.2091 31.7316 33.3242 31.5594C33.4394 31.3872 33.5009 31.1848 33.5009 30.9776V4.19152ZM10.469 12.5668C10.469 13.1221 10.2484 13.6546 9.85578 14.0473C9.46311 14.44 8.93055 14.6606 8.37523 14.6606C7.81992 14.6606 7.28735 14.44 6.89469 14.0473C6.50202 13.6546 6.28143 13.1221 6.28143 12.5668C6.28143 12.0114 6.50202 11.4789 6.89469 11.0862C7.28735 10.6935 7.81992 10.4729 8.37523 10.4729C8.93055 10.4729 9.46311 10.6935 9.85578 11.0862C10.2484 11.4789 10.469 12.0114 10.469 12.5668ZM18.8443 12.5668C18.8443 13.1221 18.6237 13.6546 18.231 14.0473C17.8383 14.44 17.3058 14.6606 16.7505 14.6606C16.1952 14.6606 15.6626 14.44 15.2699 14.0473C14.8773 13.6546 14.6567 13.1221 14.6567 12.5668C14.6567 12.0114 14.8773 11.4789 15.2699 11.0862C15.6626 10.6935 16.1952 10.4729 16.7505 10.4729C17.3058 10.4729 17.8383 10.6935 18.231 11.0862C18.6237 11.4789 18.8443 12.0114 18.8443 12.5668ZM25.1257 14.6606C24.5704 14.6606 24.0378 14.44 23.6452 14.0473C23.2525 13.6546 23.0319 13.1221 23.0319 12.5668C23.0319 12.0114 23.2525 11.4789 23.6452 11.0862C24.0378 10.6935 24.5704 10.4729 25.1257 10.4729C25.681 10.4729 26.2136 10.6935 26.6062 11.0862C26.9989 11.4789 27.2195 12.0114 27.2195 12.5668C27.2195 13.1221 26.9989 13.6546 26.6062 14.0473C26.2136 14.44 25.681 14.6606 25.1257 14.6606Z" fill="url(#paint0_linear_750_43849)"/>
</g>
<defs>
<linearGradient id="paint0_linear_750_43849" x1="8.99067" y1="-3.66785" x2="19.2378" y2="37.5241" gradientUnits="userSpaceOnUse">
<stop stop-color="#FCADC0"/>
<stop offset="0.994588" stop-color="#E85F88"/>
</linearGradient>
<clipPath id="clip0_750_43849">
<rect width="33.5009" height="33.5009" fill="white" transform="translate(0 0.00195312)"/>
</clipPath>
</defs>
</svg>
